RobotoCondensed-Light.ufo
<glyph name="nine" format="2">
  <advance width="996"/>
  <unicode hex="0039"/>
  <guideline x="0.0" y="555.0" angle="0.0" identifier="tObtQzZMb0"/>
  <guideline x="0.0" y="901.0" angle="0.0" identifier="b2CL6tPDT6"/>
  <outline>
    <contour>
      <point x="275" y="96" type="line"/>
      <point x="274" y="-11" type="line"/>
      <point x="295" y="-11" type="line" smooth="yes"/>
      <point x="749" y="-11"/>
      <point x="866" y="351"/>
      <point x="866" y="781" type="curve" smooth="yes"/>
      <point x="866" y="895" type="line" smooth="yes"/>
      <point x="866" y="1233"/>
      <point x="742" y="1476"/>
      <point x="476" y="1476" type="curve" smooth="yes"/>
      <point x="241" y="1476"/>
      <point x="105" y="1245"/>
      <point x="105" y="966" type="curve" smooth="yes"/>
      <point x="105" y="716"/>
      <point x="224" y="478"/>
      <point x="456" y="478" type="curve" smooth="yes"/>
      <point x="666" y="478"/>
      <point x="827" y="691"/>
      <point x="827" y="935" type="curve"/>
      <point x="772" y="934" type="line"/>
      <point x="767" y="780"/>
      <point x="652" y="583"/>
      <point x="471" y="583" type="curve" smooth="yes"/>
      <point x="303" y="583"/>
      <point x="214" y="773"/>
      <point x="214" y="971" type="curve" smooth="yes"/>
      <point x="214" y="1185"/>
      <point x="313" y="1371"/>
      <point x="478" y="1371" type="curve" smooth="yes"/>
      <point x="638" y="1371"/>
      <point x="755" y="1212"/>
      <point x="755" y="907" type="curve"/>
      <point x="755" y="703" type="line"/>
      <point x="755" y="360"/>
      <point x="650" y="96"/>
      <point x="295" y="96" type="curve" smooth="yes"/>
    </contour>
  </outline>
</glyph>
<glyph name="less" format="2">
  <advance width="919"/>
  <unicode hex="003C"/>
  <guideline x="0.0" y="901.0" angle="0.0" identifier="reNSBk6jE2"/>
  <guideline x="0.0" y="555.0" angle="0.0" identifier="9aZst9O0Fi"/>
  <outline>
    <contour>
      <point x="159" y="677" type="line"/>
      <point x="84" y="687" type="line"/>
      <point x="84" y="607" type="line"/>
      <point x="778" y="228" type="line"/>
      <point x="778" y="357" type="line"/>
    </contour>
    <contour>
      <point x="778" y="956" type="line"/>
      <point x="778" y="1084" type="line"/>
      <point x="84" y="706" type="line"/>
      <point x="84" y="626" type="line"/>
      <point x="160" y="633" type="line"/>
    </contour>
  </outline>
</glyph>
<glyph name="f" format="2">
  <advance width="615"/>
  <unicode hex="0066"/>
  <guideline x="0.0" y="894.0" angle="0.0" identifier="e8ttsnXLYL"/>
  <guideline x="0.0" y="187.0" angle="0.0" identifier="NBumUvKynZ"/>
  <anchor x="447" y="1718" name="top"/>
  <anchor x="297" y="10" name="bottom"/>
  <anchor x="595" y="1600" name="top_dd"/>
  <anchor x="595" y="-407" name="bottom_dd"/>
  <anchor x="595" y="1718" name="top0315"/>
  <anchor x="447" y="1718" name="parent_top"/>
  <outline>
    <contour>
      <point x="333" y="0" type="line"/>
      <point x="333" y="1216" type="line"/>
      <point x="333" y="1365"/>
      <point x="398" y="1450"/>
      <point x="505" y="1450" type="curve" smooth="yes"/>
      <point x="541" y="1450"/>
      <point x="569" y="1446"/>
      <point x="596" y="1438" type="curve"/>
      <point x="603" y="1540" type="line"/>
      <point x="569" y="1552"/>
      <point x="531" y="1557"/>
      <point x="496" y="1557" type="curve" smooth="yes"/>
      <point x="326" y="1557"/>
      <point x="222" y="1436"/>
      <point x="222" y="1216" type="curve"/>
      <point x="222" y="0" type="line"/>
    </contour>
    <contour>
      <point x="546" y="1082" type="line"/>
      <point x="73" y="1082" type="line"/>
      <point x="73" y="982" type="line"/>
      <point x="546" y="982" type="line"/>
    </contour>
  </outline>
</glyph>
<glyph name="braceright" format="2">
  <advance width="611"/>
  <unicode hex="007D"/>
  <outline>
    <contour>
      <point x="32" y="1517" type="line"/>
      <point x="178" y="1460"/>
      <point x="231" y="1313"/>
      <point x="231" y="1132" type="curve" smooth="yes"/>
      <point x="231" y="906" type="line" smooth="yes"/>
      <point x="231" y="715"/>
      <point x="319" y="571"/>
      <point x="533" y="571" type="curve"/>
      <point x="533" y="649" type="line"/>
      <point x="398" y="649"/>
      <point x="342" y="749"/>
      <point x="342" y="906" type="curve" smooth="yes"/>
      <point x="342" y="1132" type="line" smooth="yes"/>
      <point x="342" y="1342"/>
      <point x="276" y="1520"/>
      <point x="56" y="1597" type="curve"/>
    </contour>
    <contour>
      <point x="56" y="-403" type="line"/>
      <point x="276" y="-326"/>
      <point x="342" y="-150"/>
      <point x="342" y="60" type="curve" smooth="yes"/>
      <point x="342" y="286" type="line" smooth="yes"/>
      <point x="342" y="442"/>
      <point x="398" y="543"/>
      <point x="533" y="543" type="curve"/>
      <point x="533" y="621" type="line"/>
      <point x="319" y="621"/>
      <point x="231" y="476"/>
      <point x="231" y="286" type="curve" smooth="yes"/>
      <point x="231" y="60" type="line" smooth="yes"/>
      <point x="231" y="-122"/>
      <point x="175" y="-264"/>
      <point x="30" y="-322" type="curve"/>
    </contour>
  </outline>
</glyph>
<glyph name="Ismallcap" format="2">
  <advance width="587"/>
  <unicode hex="026A"/>
  <anchor x="292" y="1292" name="top"/>
  <anchor x="292" y="0" name="bottom"/>
  <anchor x="567" y="1292" name="top0315"/>
  <anchor x="292" y="1292" name="parent_top"/>
  <outline>
    <contour>
      <point x="477" y="1082" type="line"/>
      <point x="109" y="1082" type="line"/>
      <point x="109" y="978" type="line"/>
      <point x="477" y="978" type="line"/>
    </contour>
    <contour>
      <point x="348" y="1082" type="line"/>
      <point x="237" y="1082" type="line"/>
      <point x="237" y="0" type="line"/>
      <point x="348" y="0" type="line"/>
    </contour>
    <contour>
      <point x="477" y="104" type="line"/>
      <point x="109" y="104" type="line"/>
      <point x="109" y="0" type="line"/>
      <point x="477" y="0" type="line"/>
    </contour>
  </outline>
</glyph>
<glyph name="acutecomb" format="2">
  <unicode hex="0301"/>
  <anchor x="-442" y="1292" name="_top"/>
  <anchor x="-442" y="1593" name="top"/>
  <anchor x="-356" y="1396" name="parent_top"/>
  <outline>
    <contour>
      <point x="-504" y="1256" type="line"/>
      <point x="-409" y="1256" type="line"/>
      <point x="-209" y="1536" type="line"/>
      <point x="-343" y="1536" type="line"/>
    </contour>
  </outline>
</glyph>
<glyph name="tackrightsubnosp" format="2">
  <unicode hex="0319"/>
  <anchor x="-482" y="0" name="_bottom"/>
  <anchor x="-481" y="-446" name="bottom"/>
  <outline>
    <contour>
      <point x="-612" y="-60" type="line"/>
      <point x="-524" y="-60" type="line"/>
      <point x="-524" y="-446" type="line"/>
      <point x="-612" y="-446" type="line"/>
    </contour>
    <contour>
      <point x="-315" y="-206" type="line"/>
      <point x="-315" y="-300" type="line"/>
      <point x="-603" y="-300" type="line"/>
      <point x="-603" y="-206" type="line"/>
    </contour>
  </outline>
</glyph>
<glyph name="anglesupnosp" format="2">
  <unicode hex="031A"/>
  <anchor x="-380" y="1263" name="_top"/>
  <anchor x="-380" y="1674" name="top"/>
  <anchor x="-380" y="1674" name="parent_top"/>
  <outline>
    <contour>
      <point x="-646" y="1546" type="line"/>
      <point x="-185" y="1546" type="line"/>
      <point x="-185" y="1633" type="line"/>
      <point x="-646" y="1633" type="line"/>
    </contour>
    <contour>
      <point x="-201" y="1283" type="line"/>
      <point x="-112" y="1283" type="line"/>
      <point x="-112" y="1633" type="line"/>
      <point x="-201" y="1633" type="line"/>
    </contour>
  </outline>
</glyph>
<glyph name="underscoredblnosp" format="2">
  <unicode hex="0333"/>
  <anchor x="-464" y="0" name="_bottom"/>
  <anchor x="-463" y="-407" name="bottom"/>
  <outline>
    <contour>
      <point x="-91" y="-93" type="line"/>
      <point x="-837" y="-93" type="line"/>
      <point x="-837" y="-197" type="line"/>
      <point x="-91" y="-197" type="line"/>
    </contour>
    <contour>
      <point x="-90" y="-303" type="line"/>
      <point x="-836" y="-303" type="line"/>
      <point x="-836" y="-407" type="line"/>
      <point x="-90" y="-407" type="line"/>
    </contour>
  </outline>
</glyph>
<glyph name="tonos" format="2">
  <advance width="520"/>
  <unicode hex="0384"/>
  <outline>
    <contour>
      <point x="246" y="1216" type="line"/>
      <point x="384" y="1601" type="line"/>
      <point x="259" y="1616" type="line"/>
      <point x="175" y="1234" type="line"/>
    </contour>
  </outline>
</glyph>
<glyph name="dieresistonos" format="2">
  <advance width="874"/>
  <unicode hex="0385"/>
  <outline>
    <contour>
      <point x="213" y="1218" type="curve" smooth="yes"/>
      <point x="264" y="1218"/>
      <point x="296" y="1254"/>
      <point x="296" y="1299" type="curve" smooth="yes"/>
      <point x="296" y="1344"/>
      <point x="264" y="1380"/>
      <point x="213" y="1380" type="curve" smooth="yes"/>
      <point x="161" y="1380"/>
      <point x="131" y="1344"/>
      <point x="131" y="1299" type="curve" smooth="yes"/>
      <point x="131" y="1254"/>
      <point x="161" y="1218"/>
    </contour>
    <contour>
      <point x="458" y="1213" type="line"/>
      <point x="546" y="1613" type="line"/>
      <point x="417" y="1613" type="line"/>
      <point x="385" y="1220" type="line"/>
    </contour>
    <contour>
      <point x="660" y="1217" type="curve" smooth="yes"/>
      <point x="712" y="1217"/>
      <point x="743" y="1253"/>
      <point x="743" y="1298" type="curve" smooth="yes"/>
      <point x="743" y="1343"/>
      <point x="712" y="1380"/>
      <point x="660" y="1380" type="curve" smooth="yes"/>
      <point x="609" y="1380"/>
      <point x="578" y="1343"/>
      <point x="578" y="1298" type="curve" smooth="yes"/>
      <point x="578" y="1253"/>
      <point x="609" y="1217"/>
    </contour>
  </outline>
</glyph>
<glyph name="Delta" format="2">
  <advance width="1242"/>
  <unicode hex="0394"/>
  <outline>
    <contour>
      <point x="95" y="0" type="line"/>
      <point x="1148" y="0" type="line"/>
      <point x="1148" y="60" type="line"/>
      <point x="674" y="1456" type="line"/>
      <point x="568" y="1456" type="line"/>
      <point x="95" y="63" type="line"/>
    </contour>
    <contour>
      <point x="227" y="107" type="line"/>
      <point x="621" y="1300" type="line"/>
      <point x="1015" y="107" type="line"/>
    </contour>
  </outline>
</glyph>
<glyph name="Theta" format="2">
  <advance width="1201"/>
  <unicode hex="0398"/>
  <outline>
    <contour>
      <point x="600" y="-21" type="curve" smooth="yes"/>
      <point x="898" y="-21"/>
      <point x="1086" y="165"/>
      <point x="1086" y="654" type="curve" smooth="yes"/>
      <point x="1086" y="802" type="line" smooth="yes"/>
      <point x="1086" y="1291"/>
      <point x="898" y="1476"/>
      <point x="600" y="1476" type="curve" smooth="yes"/>
      <point x="303" y="1476"/>
      <point x="115" y="1291"/>
      <point x="115" y="802" type="curve" smooth="yes"/>
      <point x="115" y="654" type="line" smooth="yes"/>
      <point x="115" y="165"/>
      <point x="304" y="-21"/>
    </contour>
    <contour>
      <point x="600" y="89" type="curve" smooth="yes"/>
      <point x="364" y="89"/>
      <point x="229" y="247"/>
      <point x="229" y="642" type="curve" smooth="yes"/>
      <point x="229" y="815" type="line" smooth="yes"/>
      <point x="229" y="1211"/>
      <point x="364" y="1366"/>
      <point x="600" y="1366" type="curve" smooth="yes"/>
      <point x="837" y="1366"/>
      <point x="970" y="1211"/>
      <point x="970" y="815" type="curve" smooth="yes"/>
      <point x="970" y="642" type="line" smooth="yes"/>
      <point x="970" y="247"/>
      <point x="837" y="89"/>
    </contour>
    <contour>
      <point x="335" y="680" type="line"/>
      <point x="864" y="680" type="line"/>
      <point x="864" y="790" type="line"/>
      <point x="335" y="790" type="line"/>
    </contour>
  </outline>
</glyph>
<glyph name="Xi" format="2">
  <advance width="997"/>
  <unicode hex="039E"/>
  <outline>
    <contour>
      <point x="83" y="0" type="line"/>
      <point x="914" y="0" type="line"/>
      <point x="914" y="123" type="line"/>
      <point x="83" y="123" type="line"/>
    </contour>
    <contour>
      <point x="185" y="681" type="line"/>
      <point x="812" y="681" type="line"/>
      <point x="812" y="804" type="line"/>
      <point x="185" y="804" type="line"/>
    </contour>
    <contour>
      <point x="83" y="1334" type="line"/>
      <point x="914" y="1334" type="line"/>
      <point x="914" y="1456" type="line"/>
      <point x="83" y="1456" type="line"/>
    </contour>
  </outline>
</glyph>
<glyph name="Pi" format="2">
  <advance width="1260"/>
  <unicode hex="03A0"/>
  <outline>
    <contour>
      <point x="179" y="0" type="line"/>
      <point x="293" y="0" type="line"/>
      <point x="293" y="1349" type="line"/>
      <point x="966" y="1349" type="line"/>
      <point x="966" y="0" type="line"/>
      <point x="1081" y="0" type="line"/>
      <point x="1081" y="1456" type="line"/>
      <point x="179" y="1456" type="line"/>
    </contour>
  </outline>
</glyph>
<glyph name="Phi" format="2">
  <advance width="1271"/>
  <unicode hex="03A6"/>
  <outline>
    <contour>
      <point x="577" y="-20" type="line"/>
      <point x="692" y="-20" type="line"/>
      <point x="692" y="208" type="line"/>
      <point x="705" y="208" type="line"/>
      <point x="966" y="208"/>
      <point x="1183" y="412"/>
      <point x="1183" y="740" type="curve" smooth="yes"/>
      <point x="1183" y="1068"/>
      <point x="967" y="1271"/>
      <point x="705" y="1271" type="curve"/>
      <point x="692" y="1271" type="line"/>
      <point x="692" y="1476" type="line"/>
      <point x="577" y="1476" type="line"/>
      <point x="577" y="1271" type="line"/>
      <point x="564" y="1271" type="line"/>
      <point x="304" y="1271"/>
      <point x="87" y="1068"/>
      <point x="87" y="740" type="curve" smooth="yes"/>
      <point x="87" y="412"/>
      <point x="265" y="208"/>
      <point x="564" y="208" type="curve"/>
      <point x="577" y="208" type="line"/>
    </contour>
    <contour>
      <point x="577" y="312" type="line"/>
      <point x="564" y="312" type="line"/>
      <point x="329" y="312"/>
      <point x="201" y="478"/>
      <point x="201" y="741" type="curve" smooth="yes"/>
      <point x="201" y="1004"/>
      <point x="349" y="1167"/>
      <point x="564" y="1167" type="curve"/>
      <point x="577" y="1167" type="line"/>
    </contour>
    <contour>
      <point x="692" y="312" type="line"/>
      <point x="692" y="1167" type="line"/>
      <point x="705" y="1167" type="line"/>
      <point x="921" y="1167"/>
      <point x="1069" y="1001"/>
      <point x="1069" y="740" type="curve" smooth="yes"/>
      <point x="1069" y="476"/>
      <point x="921" y="312"/>
      <point x="705" y="312" type="curve"/>
    </contour>
  </outline>
</glyph>
<glyph name="Psi" format="2">
  <advance width="1234"/>
  <unicode hex="03A8"/>
  <outline>
    <contour>
      <point x="560" y="0" type="line"/>
      <point x="674" y="0" type="line"/>
      <point x="674" y="1456" type="line"/>
      <point x="560" y="1456" type="line"/>
    </contour>
    <contour>
      <point x="592" y="361" type="line"/>
      <point x="592" y="468" type="line"/>
      <point x="580" y="468" type="line" smooth="yes"/>
      <point x="319" y="468"/>
      <point x="236" y="540"/>
      <point x="236" y="926" type="curve" smooth="yes"/>
      <point x="236" y="1456" type="line"/>
      <point x="122" y="1456" type="line"/>
      <point x="122" y="928" type="line" smooth="yes"/>
      <point x="122" y="535"/>
      <point x="192" y="361"/>
      <point x="581" y="361" type="curve" smooth="yes"/>
    </contour>
    <contour>
      <point x="642" y="361" type="line"/>
      <point x="653" y="361" type="line" smooth="yes"/>
      <point x="1042" y="361"/>
      <point x="1112" y="535"/>
      <point x="1112" y="928" type="curve" smooth="yes"/>
      <point x="1112" y="1456" type="line"/>
      <point x="998" y="1456" type="line"/>
      <point x="998" y="926" type="line" smooth="yes"/>
      <point x="998" y="540"/>
      <point x="915" y="468"/>
      <point x="654" y="468" type="curve" smooth="yes"/>
      <point x="642" y="468" type="line"/>
    </contour>
  </outline>
</glyph>
<glyph name="Omega" format="2">
  <advance width="1170"/>
  <unicode hex="03A9"/>
  <anchor x="117" y="1456.0" name="GRK_topleft"/>
  <outline>
    <contour>
      <point x="123" y="0" type="line"/>
      <point x="527" y="0" type="line"/>
      <point x="527" y="405" type="line"/>
      <point x="314" y="441"/>
      <point x="237" y="581"/>
      <point x="237" y="848" type="curve"/>
      <point x="237" y="900" type="line"/>
      <point x="237" y="1216"/>
      <point x="364" y="1366"/>
      <point x="603" y="1366" type="curve"/>
      <point x="842" y="1366"/>
      <point x="970" y="1216"/>
      <point x="970" y="900" type="curve"/>
      <point x="970" y="848" type="line"/>
      <point x="970" y="581"/>
      <point x="890" y="441"/>
      <point x="678" y="405" type="curve"/>
      <point x="678" y="0" type="line"/>
      <point x="1084" y="0" type="line"/>
      <point x="1084" y="102" type="line"/>
      <point x="786" y="102" type="line"/>
      <point x="786" y="321" type="line"/>
      <point x="1009" y="404"/>
      <point x="1084" y="566"/>
      <point x="1084" y="846" type="curve"/>
      <point x="1084" y="892" type="line"/>
      <point x="1084" y="1287"/>
      <point x="892" y="1476"/>
      <point x="603" y="1476" type="curve"/>
      <point x="315" y="1476"/>
      <point x="123" y="1287"/>
      <point x="123" y="892" type="curve"/>
      <point x="123" y="846" type="line"/>
      <point x="123" y="566"/>
      <point x="193" y="404"/>
      <point x="419" y="321" type="curve"/>
      <point x="419" y="102" type="line"/>
      <point x="123" y="102" type="line"/>
    </contour>
  </outline>
</glyph>
<glyph name="beta" format="2">
  <advance width="1029"/>
  <unicode hex="03B2"/>
  <outline>
    <contour>
      <point x="148" y="-416" type="line"/>
      <point x="259" y="-416" type="line"/>
      <point x="259" y="103" type="line"/>
      <point x="335" y="20"/>
      <point x="427" y="-21"/>
      <point x="544" y="-21" type="curve"/>
      <point x="790" y="-21"/>
      <point x="920" y="168"/>
      <point x="920" y="453" type="curve" smooth="yes"/>
      <point x="920" y="672"/>
      <point x="826" y="818"/>
      <point x="644" y="845" type="curve"/>
      <point x="644" y="833" type="line"/>
      <point x="772" y="875"/>
      <point x="852" y="1007"/>
      <point x="852" y="1178" type="curve" smooth="yes"/>
      <point x="852" y="1413"/>
      <point x="728" y="1557"/>
      <point x="515" y="1557" type="curve" smooth="yes"/>
      <point x="298" y="1557"/>
      <point x="148" y="1436"/>
      <point x="148" y="1097" type="curve" smooth="yes"/>
    </contour>
    <contour>
      <point x="532" y="83" type="curve" smooth="yes"/>
      <point x="395" y="83"/>
      <point x="294" y="165"/>
      <point x="259" y="247" type="curve"/>
      <point x="259" y="1097" type="line" smooth="yes"/>
      <point x="259" y="1350"/>
      <point x="348" y="1453"/>
      <point x="508" y="1453" type="curve" smooth="yes"/>
      <point x="667" y="1453"/>
      <point x="743" y="1364"/>
      <point x="743" y="1177" type="curve" smooth="yes"/>
      <point x="743" y="987"/>
      <point x="667" y="884"/>
      <point x="506" y="884" type="curve" smooth="yes"/>
      <point x="401" y="884" type="line"/>
      <point x="401" y="778" type="line"/>
      <point x="505" y="778" type="line" smooth="yes"/>
      <point x="721" y="775"/>
      <point x="809" y="675"/>
      <point x="809" y="445" type="curve" smooth="yes"/>
      <point x="809" y="185"/>
      <point x="693" y="83"/>
    </contour>
  </outline>
</glyph>
<glyph name="gamma" format="2">
  <advance width="886"/>
  <unicode hex="03B3"/>
  <outline>
    <contour>
      <point x="389" y="-366" type="line"/>
      <point x="500" y="-366" type="line"/>
      <point x="500" y="35" type="line"/>
      <point x="826" y="1082" type="line"/>
      <point x="712" y="1082" type="line"/>
      <point x="446" y="175" type="line"/>
      <point x="176" y="1082" type="line"/>
      <point x="61" y="1082" type="line"/>
      <point x="389" y="35" type="line"/>
    </contour>
  </outline>
</glyph>
<glyph name="zeta" format="2">
  <advance width="895"/>
  <unicode hex="03B6"/>
  <outline>
    <contour>
      <point x="626" y="-348" type="curve"/>
      <point x="728" y="-348" type="line"/>
      <point x="759" y="-286"/>
      <point x="783" y="-204"/>
      <point x="783" y="-139" type="curve"/>
      <point x="783" y="-26"/>
      <point x="745" y="36"/>
      <point x="551" y="102" type="curve" smooth="yes"/>
      <point x="495" y="121" type="line" smooth="yes"/>
      <point x="350" y="170"/>
      <point x="288" y="224"/>
      <point x="288" y="354" type="curve" smooth="yes"/>
      <point x="288" y="495"/>
      <point x="373" y="659"/>
      <point x="521" y="922" type="curve" smooth="yes"/>
      <point x="818" y="1444" type="line"/>
      <point x="818" y="1536" type="line"/>
      <point x="187" y="1536" type="line"/>
      <point x="187" y="1430" type="line"/>
      <point x="726" y="1430" type="line"/>
      <point x="726" y="1496" type="line"/>
      <point x="425" y="963" type="line" smooth="yes"/>
      <point x="285" y="714"/>
      <point x="177" y="528"/>
      <point x="177" y="341" type="curve" smooth="yes"/>
      <point x="177" y="182"/>
      <point x="258" y="84"/>
      <point x="451" y="21" type="curve" smooth="yes"/>
      <point x="500" y="5" type="line" smooth="yes"/>
      <point x="638" y="-40"/>
      <point x="673" y="-73"/>
      <point x="673" y="-166" type="curve"/>
      <point x="673" y="-230"/>
      <point x="656" y="-268"/>
    </contour>
  </outline>
</glyph>
<glyph name="iota" format="2">
  <advance width="564"/>
  <unicode hex="03B9"/>
  <anchor x="227" y="1082" name="GRK_top"/>
  <outline>
    <contour>
      <point x="365" y="-20" type="curve" smooth="yes"/>
      <point x="408" y="-20"/>
      <point x="451" y="-13"/>
      <point x="475" y="-4" type="curve"/>
      <point x="471" y="98" type="line"/>
      <point x="450" y="93"/>
      <point x="421" y="88"/>
      <point x="391" y="88" type="curve" smooth="yes"/>
      <point x="331" y="88"/>
      <point x="277" y="114"/>
      <point x="277" y="264" type="curve"/>
      <point x="277" y="1082" type="line"/>
      <point x="165" y="1082" type="line"/>
      <point x="165" y="264" type="line"/>
      <point x="165" y="47"/>
      <point x="250" y="-20"/>
    </contour>
  </outline>
</glyph>
<glyph name="kappa" format="2">
  <advance width="978"/>
  <unicode hex="03BA"/>
  <outline>
    <contour>
      <point x="159" y="0" type="line"/>
      <point x="270" y="0" type="line"/>
      <point x="270" y="499" type="line"/>
      <point x="406" y="499" type="line"/>
      <point x="733" y="0" type="line"/>
      <point x="864" y="0" type="line"/>
      <point x="503" y="555" type="line"/>
      <point x="827" y="1082" type="line"/>
      <point x="707" y="1082" type="line"/>
      <point x="404" y="599" type="line"/>
      <point x="270" y="599" type="line"/>
      <point x="270" y="1082" type="line"/>
      <point x="159" y="1082" type="line"/>
    </contour>
  </outline>
</glyph>
<glyph name="lambda" format="2">
  <advance width="988"/>
  <unicode hex="03BB"/>
  <outline>
    <contour>
      <point x="87" y="0" type="line"/>
      <point x="213" y="0" type="line"/>
      <point x="502" y="897" type="line"/>
      <point x="779" y="0" type="line"/>
      <point x="905" y="0" type="line"/>
      <point x="506" y="1252" type="line" smooth="yes"/>
      <point x="433" y="1480"/>
      <point x="352" y="1557"/>
      <point x="198" y="1557" type="curve" smooth="yes"/>
      <point x="157" y="1557"/>
      <point x="124" y="1551"/>
      <point x="86" y="1536" type="curve"/>
      <point x="86" y="1430" type="line"/>
      <point x="103" y="1437"/>
      <point x="136" y="1450"/>
      <point x="183" y="1450" type="curve"/>
      <point x="304" y="1450"/>
      <point x="329" y="1397"/>
      <point x="410" y="1161" type="curve" smooth="yes"/>
      <point x="440" y="1074" type="line"/>
    </contour>
  </outline>
</glyph>
<glyph name="rho" format="2">
  <advance width="1001"/>
  <unicode hex="03C1"/>
  <outline>
    <contour>
      <point x="148" y="-416" type="line"/>
      <point x="259" y="-416" type="line"/>
      <point x="259" y="133" type="line"/>
      <point x="304" y="45"/>
      <point x="389" y="-21"/>
      <point x="521" y="-21" type="curve"/>
      <point x="767" y="-21"/>
      <point x="894" y="185"/>
      <point x="894" y="509" type="curve" smooth="yes"/>
      <point x="894" y="576" type="line" smooth="yes"/>
      <point x="894" y="883"/>
      <point x="788" y="1102"/>
      <point x="523" y="1102" type="curve" smooth="yes"/>
      <point x="276" y="1102"/>
      <point x="148" y="943"/>
      <point x="148" y="568" type="curve" smooth="yes"/>
    </contour>
    <contour>
      <point x="510" y="83" type="curve" smooth="yes"/>
      <point x="360" y="83"/>
      <point x="290" y="175"/>
      <point x="259" y="260" type="curve"/>
      <point x="259" y="573" type="line"/>
      <point x="259" y="842"/>
      <point x="317" y="998"/>
      <point x="518" y="998" type="curve" smooth="yes"/>
      <point x="686" y="998"/>
      <point x="783" y="867"/>
      <point x="783" y="581" type="curve" smooth="yes"/>
      <point x="783" y="488" type="line" smooth="yes"/>
      <point x="783" y="210"/>
      <point x="686" y="83"/>
    </contour>
  </outline>
</glyph>
<glyph name="sigma" format="2">
  <advance width="1071"/>
  <unicode hex="03C3"/>
  <outline>
    <contour>
      <point x="510" y="-21" type="curve" smooth="yes"/>
      <point x="773" y="-21"/>
      <point x="912" y="176"/>
      <point x="912" y="515" type="curve" smooth="yes"/>
      <point x="912" y="545" type="line" smooth="yes"/>
      <point x="912" y="767"/>
      <point x="856" y="922"/>
      <point x="720" y="999" type="curve"/>
      <point x="720" y="976" type="line"/>
      <point x="990" y="976" type="line"/>
      <point x="990" y="1082" type="line"/>
      <point x="516" y="1082" type="line" smooth="yes"/>
      <point x="266" y="1082"/>
      <point x="107" y="904"/>
      <point x="107" y="541" type="curve" smooth="yes"/>
      <point x="107" y="511" type="line" smooth="yes"/>
      <point x="107" y="172"/>
      <point x="248" y="-21"/>
    </contour>
    <contour>
      <point x="510" y="83" type="curve" smooth="yes"/>
      <point x="304" y="83"/>
      <point x="218" y="246"/>
      <point x="218" y="509" type="curve" smooth="yes"/>
      <point x="218" y="542" type="line" smooth="yes"/>
      <point x="218" y="801"/>
      <point x="295" y="981"/>
      <point x="513" y="981" type="curve" smooth="yes"/>
      <point x="709" y="981"/>
      <point x="801" y="812"/>
      <point x="801" y="546" type="curve" smooth="yes"/>
      <point x="801" y="513" type="line" smooth="yes"/>
      <point x="801" y="250"/>
      <point x="720" y="83"/>
    </contour>
  </outline>
</glyph>
<glyph name="tau" format="2">
  <advance width="923"/>
  <unicode hex="03C4"/>
  <outline>
    <contour>
      <point x="108" y="972" type="line"/>
      <point x="810" y="972" type="line"/>
      <point x="810" y="1082" type="line"/>
      <point x="108" y="1082" type="line"/>
    </contour>
    <contour>
      <point x="594" y="-20" type="curve" smooth="yes"/>
      <point x="637" y="-20"/>
      <point x="680" y="-13"/>
      <point x="704" y="-4" type="curve"/>
      <point x="700" y="98" type="line"/>
      <point x="679" y="93"/>
      <point x="650" y="88"/>
      <point x="620" y="88" type="curve" smooth="yes"/>
      <point x="560" y="88"/>
      <point x="506" y="114"/>
      <point x="506" y="264" type="curve"/>
      <point x="506" y="1026" type="line"/>
      <point x="394" y="1026" type="line"/>
      <point x="394" y="264" type="line"/>
      <point x="394" y="47"/>
      <point x="479" y="-20"/>
    </contour>
  </outline>
</glyph>
<glyph name="upsilon" format="2">
  <advance width="964"/>
  <unicode hex="03C5"/>
  <anchor x="484" y="1082" name="GRK_top"/>
  <outline>
    <contour>
      <point x="485.0" y="-20" type="curve" smooth="yes"/>
      <point x="710.0" y="-20"/>
      <point x="826.0" y="83"/>
      <point x="826.0" y="382" type="curve" smooth="yes"/>
      <point x="826.0" y="1082" type="line"/>
      <point x="713.0" y="1082" type="line"/>
      <point x="713.0" y="376" type="line" smooth="yes"/>
      <point x="713.0" y="164"/>
      <point x="651.0" y="87"/>
      <point x="485.0" y="87" type="curve" smooth="yes"/>
      <point x="320.0" y="87"/>
      <point x="252.0" y="164"/>
      <point x="252.0" y="376" type="curve" smooth="yes"/>
      <point x="252.0" y="1082" type="line"/>
      <point x="141.0" y="1082" type="line"/>
      <point x="141.0" y="382" type="line" smooth="yes"/>
      <point x="141.0" y="83"/>
      <point x="261.0" y="-20"/>
    </contour>
  </outline>
</glyph>
<glyph name="omega" format="2">
  <advance width="1458"/>
  <unicode hex="03C9"/>
  <anchor x="730" y="1082" name="GRK_top"/>
  <outline>
    <contour>
      <point x="459.0" y="-20" type="curve" smooth="yes"/>
      <point x="595.0" y="-20"/>
      <point x="698.0" y="41"/>
      <point x="736.0" y="196" type="curve"/>
      <point x="722.0" y="196" type="line"/>
      <point x="761.0" y="41"/>
      <point x="864.0" y="-20"/>
      <point x="1000.0" y="-20" type="curve" smooth="yes"/>
      <point x="1216.0" y="-20"/>
      <point x="1342.0" y="149"/>
      <point x="1342.0" y="489" type="curve" smooth="yes"/>
      <point x="1342.0" y="753"/>
      <point x="1260.0" y="957"/>
      <point x="1158.0" y="1082" type="curve"/>
      <point x="1036.0" y="1082" type="line"/>
      <point x="1138.0" y="954"/>
      <point x="1231.0" y="750"/>
      <point x="1231.0" y="487" type="curve" smooth="yes"/>
      <point x="1231.0" y="220"/>
      <point x="1151.0" y="83"/>
      <point x="985.0" y="83" type="curve"/>
      <point x="852.0" y="83"/>
      <point x="785.0" y="166"/>
      <point x="785.0" y="376" type="curve" smooth="yes"/>
      <point x="785.0" y="719" type="line"/>
      <point x="674.0" y="719" type="line"/>
      <point x="674.0" y="376" type="line"/>
      <point x="674.0" y="166"/>
      <point x="607.0" y="83"/>
      <point x="474.0" y="83" type="curve"/>
      <point x="308.0" y="83"/>
      <point x="228.0" y="220"/>
      <point x="228.0" y="487" type="curve" smooth="yes"/>
      <point x="228.0" y="750"/>
      <point x="321.0" y="954"/>
      <point x="423.0" y="1082" type="curve"/>
      <point x="301.0" y="1082" type="line"/>
      <point x="199.0" y="957"/>
      <point x="117.0" y="753"/>
      <point x="117.0" y="489" type="curve" smooth="yes"/>
      <point x="117.0" y="149"/>
      <point x="243.0" y="-20"/>
    </contour>
  </outline>
</glyph>
<glyph name="kaisymbol" format="2">
  <advance width="871"/>
  <unicode hex="03D7"/>
  <outline>
    <contour>
      <point x="351" y="-541" type="line"/>
      <point x="844" y="0" type="line"/>
      <point x="493" y="555" type="line"/>
      <point x="807" y="1082" type="line"/>
      <point x="687" y="1082" type="line"/>
      <point x="394" y="599" type="line"/>
      <point x="260" y="599" type="line"/>
      <point x="260" y="1082" type="line"/>
      <point x="149" y="1082" type="line"/>
      <point x="149" y="0" type="line"/>
      <point x="260" y="0" type="line"/>
      <point x="260" y="499" type="line"/>
      <point x="396" y="499" type="line"/>
      <point x="712" y="2" type="line"/>
      <point x="275" y="-465" type="line"/>
    </contour>
  </outline>
</glyph>
<glyph name="uni0402" format="2">
  <advance width="1322"/>
  <unicode hex="0402"/>
  <outline>
    <contour>
      <point x="494" y="688" type="line"/>
      <point x="593" y="742"/>
      <point x="699" y="775"/>
      <point x="809" y="775" type="curve"/>
      <point x="998" y="775"/>
      <point x="1117" y="665"/>
      <point x="1117" y="424" type="curve" smooth="yes"/>
      <point x="1117" y="245"/>
      <point x="1032" y="91"/>
      <point x="826" y="91" type="curve"/>
      <point x="827" y="-11" type="line"/>
      <point x="1104" y="-11"/>
      <point x="1232" y="196"/>
      <point x="1232" y="424" type="curve"/>
      <point x="1232" y="742"/>
      <point x="1064" y="886"/>
      <point x="810" y="886" type="curve" smooth="yes"/>
      <point x="718" y="886"/>
      <point x="585" y="849"/>
      <point x="494" y="799" type="curve"/>
    </contour>
    <contour>
      <point x="539" y="1456" type="line"/>
      <point x="424" y="1456" type="line"/>
      <point x="424" y="0" type="line"/>
      <point x="539" y="0" type="line"/>
    </contour>
    <contour>
      <point x="1008" y="1456" type="line"/>
      <point x="64" y="1456" type="line"/>
      <point x="64" y="1349" type="line"/>
      <point x="1008" y="1349" type="line"/>
    </contour>
  </outline>
</glyph>
<glyph name="uni0438" format="2">
  <advance width="1012"/>
  <unicode hex="0438"/>
  <anchor x="504" y="1269" name="top"/>
  <anchor x="992" y="1269" name="top0315"/>
  <anchor x="504" y="1269" name="parent_top"/>
  <outline>
    <contour>
      <point x="267" y="197" type="line"/>
      <point x="267" y="1082" type="line"/>
      <point x="157" y="1082" type="line"/>
      <point x="157" y="0" type="line"/>
      <point x="267" y="0" type="line"/>
      <point x="744" y="885" type="line"/>
      <point x="744" y="0" type="line"/>
      <point x="856" y="0" type="line"/>
      <point x="856" y="1082" type="line"/>
      <point x="744" y="1082" type="line"/>
    </contour>
  </outline>
</glyph>
<glyph name="uni046C" format="2">
  <advance width="1915"/>
  <unicode hex="046C"/>
  <outline>
    <contour>
      <point x="1036" y="781" type="line"/>
      <point x="277" y="781" type="line"/>
      <point x="277" y="678" type="line"/>
      <point x="1036" y="678" type="line"/>
    </contour>
    <contour>
      <point x="306" y="1456" type="line"/>
      <point x="192" y="1456" type="line"/>
      <point x="192" y="0" type="line"/>
      <point x="306" y="0" type="line"/>
    </contour>
    <contour>
      <point x="725" y="0" type="line"/>
      <point x="725" y="379" type="line" smooth="yes"/>
      <point x="725" y="602"/>
      <point x="811" y="673"/>
      <point x="991" y="673" type="curve" smooth="yes"/>
      <point x="1384" y="673" type="line" smooth="yes"/>
      <point x="1564" y="673"/>
      <point x="1650" y="602"/>
      <point x="1650" y="379" type="curve" smooth="yes"/>
      <point x="1650" y="0" type="line"/>
      <point x="1764" y="0" type="line"/>
      <point x="1764" y="379" type="line" smooth="yes"/>
      <point x="1764" y="671"/>
      <point x="1623" y="780"/>
      <point x="1384" y="780" type="curve" smooth="yes"/>
      <point x="991" y="780" type="line" smooth="yes"/>
      <point x="753" y="780"/>
      <point x="610" y="671"/>
      <point x="610" y="379" type="curve" smooth="yes"/>
      <point x="610" y="0" type="line"/>
    </contour>
    <contour>
      <point x="1555" y="1456" type="line"/>
      <point x="829" y="1456" type="line"/>
      <point x="829" y="1349" type="line"/>
      <point x="1555" y="1349" type="line"/>
    </contour>
    <contour>
      <point x="1168" y="735" type="line"/>
      <point x="1165" y="654" type="line"/>
      <point x="1243" y="654" type="line"/>
      <point x="1672" y="1456" type="line"/>
      <point x="1540" y="1456" type="line"/>
    </contour>
    <contour>
      <point x="841" y="1456" type="line"/>
      <point x="709" y="1456" type="line"/>
      <point x="1138" y="654" type="line"/>
      <point x="1216" y="654" type="line"/>
      <point x="1215" y="731" type="line"/>
    </contour>
    <contour>
      <point x="1246" y="754" type="line"/>
      <point x="1131" y="754" type="line"/>
      <point x="1131" y="0" type="line"/>
      <point x="1246" y="0" type="line"/>
    </contour>
  </outline>
</glyph>
<glyph name="uni1D46" format="2">
  <advance width="1168"/>
  <unicode hex="1D46"/>
  <outline>
    <contour>
      <point x="806" y="637" type="curve" smooth="yes"/>
      <point x="961" y="637"/>
      <point x="1070" y="759"/>
      <point x="1070" y="879" type="curve"/>
      <point x="973" y="879" type="line"/>
      <point x="967" y="794"/>
      <point x="911" y="738"/>
      <point x="810" y="738" type="curve" smooth="yes"/>
      <point x="701" y="738"/>
      <point x="654" y="803"/>
      <point x="654" y="913" type="curve" smooth="yes"/>
      <point x="654" y="1288" type="line"/>
      <point x="551" y="1231" type="line"/>
      <point x="551" y="907" type="line" smooth="yes"/>
      <point x="551" y="723"/>
      <point x="662" y="637"/>
    </contour>
    <contour>
      <point x="624" y="974" type="line"/>
      <point x="784" y="974" type="line" smooth="yes"/>
      <point x="971" y="974"/>
      <point x="1090" y="1081"/>
      <point x="1090" y="1242" type="curve" smooth="yes"/>
      <point x="1090" y="1375"/>
      <point x="1006" y="1468"/>
      <point x="867" y="1468" type="curve" smooth="yes"/>
      <point x="717" y="1468"/>
      <point x="637" y="1385"/>
      <point x="577" y="1282" type="curve"/>
      <point x="631" y="1181" type="line"/>
      <point x="649" y="1285"/>
      <point x="742" y="1368"/>
      <point x="855" y="1368" type="curve" smooth="yes"/>
      <point x="941" y="1368"/>
      <point x="987" y="1313"/>
      <point x="987" y="1230" type="curve" smooth="yes"/>
      <point x="987" y="1123"/>
      <point x="911" y="1063"/>
      <point x="766" y="1063" type="curve" smooth="yes"/>
      <point x="623" y="1063" type="line"/>
    </contour>
    <contour>
      <point x="356" y="635" type="curve" smooth="yes"/>
      <point x="508" y="635"/>
      <point x="654" y="793"/>
      <point x="654" y="1042" type="curve" smooth="yes"/>
      <point x="654" y="1073" type="line" smooth="yes"/>
      <point x="654" y="1302"/>
      <point x="519" y="1466"/>
      <point x="342" y="1466" type="curve" smooth="yes"/>
      <point x="219" y="1466"/>
      <point x="140" y="1403"/>
      <point x="96" y="1326" type="curve"/>
      <point x="165" y="1260" type="line"/>
      <point x="212" y="1326"/>
      <point x="261" y="1365"/>
      <point x="338" y="1365" type="curve" smooth="yes"/>
      <point x="463" y="1365"/>
      <point x="551" y="1249"/>
      <point x="551" y="1073" type="curve" smooth="yes"/>
      <point x="551" y="1042" type="line" smooth="yes"/>
      <point x="551" y="855"/>
      <point x="478" y="736"/>
      <point x="356" y="736" type="curve" smooth="yes"/>
      <point x="240" y="736"/>
      <point x="182" y="837"/>
      <point x="182" y="971" type="curve" smooth="yes"/>
      <point x="182" y="981" type="line"/>
      <point x="595" y="981" type="line"/>
      <point x="595" y="1081" type="line"/>
      <point x="78" y="1081" type="line"/>
      <point x="78" y="1003" type="line" smooth="yes"/>
      <point x="78" y="789"/>
      <point x="180" y="635"/>
    </contour>
  </outline>
</glyph>
<glyph name="uni1D73" format="2">
  <advance width="647"/>
  <unicode hex="1D73"/>
  <anchor x="467" y="1290" name="top"/>
  <anchor x="314" y="0" name="bottom"/>
  <anchor x="627" y="1290" name="top0315"/>
  <anchor x="467" y="1290" name="parent_top"/>
  <outline>
    <contour>
      <point x="367" y="0" type="line"/>
      <point x="367" y="771" type="line" smooth="yes"/>
      <point x="367" y="931"/>
      <point x="427" y="994"/>
      <point x="513" y="994" type="curve" smooth="yes"/>
      <point x="544" y="994"/>
      <point x="572" y="990"/>
      <point x="599" y="985" type="curve"/>
      <point x="607" y="1086" type="line"/>
      <point x="574" y="1098"/>
      <point x="538" y="1101"/>
      <point x="505" y="1101" type="curve" smooth="yes"/>
      <point x="350" y="1101"/>
      <point x="255" y="996"/>
      <point x="255" y="771" type="curve" smooth="yes"/>
      <point x="255" y="0" type="line"/>
    </contour>
    <contour>
      <point x="536" y="669" type="line"/>
      <point x="536" y="596"/>
      <point x="495" y="548"/>
      <point x="445" y="548" type="curve" smooth="yes"/>
      <point x="354" y="548"/>
      <point x="317" y="657"/>
      <point x="213" y="657" type="curve" smooth="yes"/>
      <point x="119" y="657"/>
      <point x="46" y="572"/>
      <point x="46" y="443" type="curve"/>
      <point x="127" y="440" type="line"/>
      <point x="127" y="513"/>
      <point x="167" y="558"/>
      <point x="218" y="558" type="curve" smooth="yes"/>
      <point x="313" y="558"/>
      <point x="332" y="448"/>
      <point x="449" y="448" type="curve" smooth="yes"/>
      <point x="543" y="448"/>
      <point x="617" y="534"/>
      <point x="617" y="663" type="curve"/>
    </contour>
  </outline>
</glyph>
<glyph name="uni1DBB" format="2">
  <advance width="636"/>
  <unicode hex="1DBB"/>
  <outline>
    <contour>
      <point x="583" y="752" type="line"/>
      <point x="84" y="752" type="line"/>
      <point x="84" y="651" type="line"/>
      <point x="583" y="651" type="line"/>
    </contour>
    <contour>
      <point x="557" y="1372" type="line"/>
      <point x="557" y="1454" type="line"/>
      <point x="498" y="1454" type="line"/>
      <point x="54" y="735" type="line"/>
      <point x="54" y="651" type="line"/>
      <point x="111" y="651" type="line"/>
    </contour>
    <contour>
      <point x="521" y="1454" type="line"/>
      <point x="64" y="1454" type="line"/>
      <point x="64" y="1353" type="line"/>
      <point x="521" y="1353" type="line"/>
    </contour>
  </outline>
</glyph>
<glyph name="uni1DBE" format="2">
  <advance width="717"/>
  <unicode hex="1DBE"/>
  <outline>
    <contour>
      <point x="79" y="1454" type="line"/>
      <point x="79" y="1353" type="line"/>
      <point x="507" y="1353" type="line"/>
      <point x="258" y="995" type="line"/>
      <point x="258" y="944" type="line"/>
      <point x="335" y="944" type="line"/>
      <point x="630" y="1374" type="line"/>
      <point x="628" y="1454" type="line"/>
    </contour>
    <contour>
      <point x="258" y="990" type="line"/>
      <point x="258" y="890" type="line"/>
      <point x="323" y="890" type="line" smooth="yes"/>
      <point x="455" y="890"/>
      <point x="541" y="824"/>
      <point x="541" y="666" type="curve" smooth="yes"/>
      <point x="541" y="531"/>
      <point x="478" y="445"/>
      <point x="354" y="445" type="curve" smooth="yes"/>
      <point x="227" y="445"/>
      <point x="162" y="527"/>
      <point x="155" y="660" type="curve"/>
      <point x="54" y="660" type="line"/>
      <point x="54" y="442"/>
      <point x="205" y="346"/>
      <point x="354" y="346" type="curve" smooth="yes"/>
      <point x="513" y="346"/>
      <point x="645" y="463"/>
      <point x="645" y="666" type="curve" smooth="yes"/>
      <point x="645" y="870"/>
      <point x="530" y="990"/>
      <point x="326" y="990" type="curve" smooth="yes"/>
    </contour>
  </outline>
</glyph>
<glyph name="uni1DC8" format="2">
  <unicode hex="1DC8"/>
  <anchor x="-442" y="1170" name="_top"/>
  <outline>
    <contour>
      <point x="-596" y="1245" type="line"/>
      <point x="-471" y="1245" type="line"/>
      <point x="-340" y="1455" type="line"/>
      <point x="-214" y="1245" type="line"/>
      <point x="-120" y="1245" type="line"/>
      <point x="-258" y="1525" type="line"/>
      <point x="-419" y="1525" type="line"/>
      <point x="-532" y="1321" type="line"/>
      <point x="-640" y="1525" type="line"/>
      <point x="-765" y="1525" type="line"/>
    </contour>
  </outline>
</glyph>
<glyph name="quotesinglbase" format="2">
  <advance width="346"/>
  <unicode hex="201A"/>
  <guideline x="0.0" y="901.0" angle="0.0" identifier="mH5ZZctpPF"/>
  <guideline x="0.0" y="555.0" angle="0.0" identifier="lsNtiNgd3e"/>
  <outline>
    <contour>
      <point x="243" y="205" type="line"/>
      <point x="132" y="205" type="line"/>
      <point x="132" y="87" type="line"/>
      <point x="132" y="-19"/>
      <point x="106" y="-98"/>
      <point x="54" y="-181" type="curve"/>
      <point x="119" y="-234" type="line"/>
      <point x="196" y="-154"/>
      <point x="243" y="-33"/>
      <point x="243" y="89" type="curve"/>
    </contour>
  </outline>
</glyph>
<glyph name="uni20AD" format="2">
  <advance width="1198"/>
  <unicode hex="20AD"/>
  <outline>
    <contour>
      <point x="1002" y="788" type="line"/>
      <point x="49" y="788" type="line"/>
      <point x="49" y="685" type="line"/>
      <point x="1002" y="685" type="line"/>
    </contour>
    <contour>
      <point x="345" y="1456" type="line"/>
      <point x="230" y="1456" type="line"/>
      <point x="230" y="0" type="line"/>
      <point x="345" y="0" type="line"/>
    </contour>
    <contour>
      <point x="1109" y="1456" type="line"/>
      <point x="965" y="1456" type="line"/>
      <point x="501" y="790" type="line"/>
      <point x="287" y="790" type="line"/>
      <point x="299" y="682" type="line"/>
      <point x="568" y="682" type="line"/>
    </contour>
    <contour>
      <point x="1003" y="0" type="line"/>
      <point x="1145" y="0" type="line"/>
      <point x="563" y="806" type="line"/>
      <point x="498" y="697" type="line"/>
    </contour>
  </outline>
</glyph>
<glyph name="uni2116" format="2">
  <advance width="1797"/>
  <unicode hex="2116"/>
  <outline>
    <contour>
      <point x="1652" y="531" type="line"/>
      <point x="1146" y="531" type="line"/>
      <point x="1146" y="432" type="line"/>
      <point x="1652" y="432" type="line"/>
    </contour>
    <contour>
      <point x="1119" y="1025" type="line"/>
      <point x="1119" y="824"/>
      <point x="1225" y="686"/>
      <point x="1395" y="686" type="curve" smooth="yes"/>
      <point x="1564" y="686"/>
      <point x="1669" y="824"/>
      <point x="1669" y="1025" type="curve"/>
      <point x="1669" y="1132" type="line"/>
      <point x="1669" y="1333"/>
      <point x="1564" y="1472"/>
      <point x="1394" y="1472" type="curve" smooth="yes"/>
      <point x="1225" y="1472"/>
      <point x="1119" y="1333"/>
      <point x="1119" y="1132" type="curve"/>
    </contour>
    <contour>
      <point x="1219" y="1132" type="line"/>
      <point x="1219" y="1269"/>
      <point x="1276" y="1374"/>
      <point x="1394" y="1374" type="curve" smooth="yes"/>
      <point x="1512" y="1374"/>
      <point x="1569" y="1269"/>
      <point x="1569" y="1132" type="curve"/>
      <point x="1569" y="1025" type="line"/>
      <point x="1569" y="887"/>
      <point x="1512" y="783"/>
      <point x="1395" y="783" type="curve" smooth="yes"/>
      <point x="1274" y="783"/>
      <point x="1219" y="887"/>
      <point x="1219" y="1025" type="curve"/>
    </contour>
    <contour>
      <point x="963" y="1456" type="line"/>
      <point x="853" y="1456" type="line"/>
      <point x="853" y="215" type="line"/>
      <point x="287" y="1456" type="line"/>
      <point x="166" y="1456" type="line"/>
      <point x="166" y="0" type="line"/>
      <point x="278" y="0" type="line"/>
      <point x="278" y="1242" type="line"/>
      <point x="843" y="0" type="line"/>
      <point x="963" y="0" type="line"/>
    </contour>
  </outline>
</glyph>
<glyph name="uni2C6B" format="2">
  <advance width="1070"/>
  <unicode hex="2C6B"/>
  <outline>
    <contour>
      <point x="977" y="107" type="line"/>
      <point x="863" y="107" type="line"/>
      <point x="863" y="-353" type="line"/>
      <point x="977" y="-353" type="line"/>
    </contour>
    <contour>
      <point x="977" y="107" type="line"/>
      <point x="138" y="107" type="line"/>
      <point x="138" y="0" type="line"/>
      <point x="977" y="0" type="line"/>
    </contour>
    <contour>
      <point x="950" y="1366" type="line"/>
      <point x="950" y="1456" type="line"/>
      <point x="877" y="1456" type="line"/>
      <point x="95" y="95" type="line"/>
      <point x="95" y="0" type="line"/>
      <point x="167" y="0" type="line"/>
    </contour>
    <contour>
      <point x="901" y="1456" type="line"/>
      <point x="115" y="1456" type="line"/>
      <point x="115" y="1349" type="line"/>
      <point x="901" y="1349" type="line"/>
    </contour>
  </outline>
</glyph>
<glyph name="uni2C79" format="2">
  <advance width="637"/>
  <unicode hex="2C79"/>
  <guideline x="0.0" y="1557.0" angle="0.0" identifier="H1sXI3aMlg"/>
  <outline>
    <contour>
      <point x="474" y="983" type="line"/>
      <point x="474" y="1190" type="line" smooth="yes"/>
      <point x="474" y="1399"/>
      <point x="384" y="1514"/>
      <point x="240" y="1514" type="curve" smooth="yes"/>
      <point x="211" y="1514"/>
      <point x="180" y="1508"/>
      <point x="152" y="1496" type="curve"/>
      <point x="157" y="1406" type="line"/>
      <point x="173" y="1412"/>
      <point x="199" y="1419"/>
      <point x="221" y="1419" type="curve" smooth="yes"/>
      <point x="320" y="1419"/>
      <point x="363" y="1343"/>
      <point x="363" y="1190" type="curve" smooth="yes"/>
      <point x="363" y="983" type="line"/>
    </contour>
    <contour>
      <point x="363" y="179" type="line"/>
      <point x="365" y="0" type="line"/>
      <point x="474" y="0" type="line"/>
      <point x="474" y="1082" type="line"/>
      <point x="363" y="1082" type="line"/>
    </contour>
    <contour>
      <point x="48" y="-8" type="line"/>
      <point x="60" y="-14"/>
      <point x="91" y="-20"/>
      <point x="115" y="-20" type="curve"/>
      <point x="324" y="-20"/>
      <point x="419" y="200"/>
      <point x="419" y="481" type="curve"/>
      <point x="380" y="464" type="line"/>
      <point x="372" y="259"/>
      <point x="288" y="97"/>
      <point x="119" y="97" type="curve"/>
      <point x="93" y="97"/>
      <point x="73" y="99"/>
      <point x="50" y="104" type="curve"/>
    </contour>
  </outline>
</glyph>
<glyph name="uni2DE2" format="2">
  <unicode hex="2DE2"/>
  <anchor x="-458" y="1170" name="_top"/>
  <outline>
    <contour>
      <point x="-291" y="1754" type="line"/>
      <point x="-592" y="1754" type="line"/>
      <point x="-592" y="1202" type="line"/>
      <point x="-517" y="1202" type="line"/>
      <point x="-517" y="1682" type="line"/>
      <point x="-291" y="1682" type="line"/>
    </contour>
  </outline>
</glyph>
<glyph name="uni2DF6" format="2">
  <unicode hex="2DF6"/>
  <anchor x="-465" y="1170" name="_top"/>
  <outline>
    <contour>
      <point x="-344" y="1202" type="curve"/>
      <point x="-267" y="1202" type="line"/>
      <point x="-280" y="1236"/>
      <point x="-285" y="1279"/>
      <point x="-285" y="1322" type="curve" smooth="yes"/>
      <point x="-285" y="1573" type="line" smooth="yes"/>
      <point x="-285" y="1697"/>
      <point x="-357" y="1759"/>
      <point x="-459" y="1759" type="curve" smooth="yes"/>
      <point x="-566" y="1759"/>
      <point x="-639" y="1686"/>
      <point x="-639" y="1595" type="curve"/>
      <point x="-567" y="1589" type="line"/>
      <point x="-567" y="1647"/>
      <point x="-526" y="1688"/>
      <point x="-459" y="1688" type="curve" smooth="yes"/>
      <point x="-391" y="1688"/>
      <point x="-360" y="1649"/>
      <point x="-360" y="1574" type="curve" smooth="yes"/>
      <point x="-360" y="1310" type="line"/>
      <point x="-360" y="1272"/>
      <point x="-354" y="1232"/>
    </contour>
    <contour>
      <point x="-513" y="1191" type="curve" smooth="yes"/>
      <point x="-416" y="1191"/>
      <point x="-359" y="1261"/>
      <point x="-339" y="1323" type="curve"/>
      <point x="-351" y="1384" type="line"/>
      <point x="-364" y="1318"/>
      <point x="-427" y="1262"/>
      <point x="-499" y="1262" type="curve" smooth="yes"/>
      <point x="-558" y="1262"/>
      <point x="-586" y="1295"/>
      <point x="-586" y="1349" type="curve" smooth="yes"/>
      <point x="-586" y="1415"/>
      <point x="-539" y="1455"/>
      <point x="-453" y="1455" type="curve" smooth="yes"/>
      <point x="-344" y="1455" type="line"/>
      <point x="-345" y="1517" type="line"/>
      <point x="-453" y="1517" type="line" smooth="yes"/>
      <point x="-590" y="1517"/>
      <point x="-661" y="1451"/>
      <point x="-661" y="1347" type="curve" smooth="yes"/>
      <point x="-661" y="1252"/>
      <point x="-605" y="1191"/>
    </contour>
  </outline>
</glyph>
<glyph name="uni2DF7" format="2">
  <unicode hex="2DF7"/>
  <anchor x="-457" y="1170" name="_top"/>
  <outline>
    <contour>
      <point x="-447" y="1190" type="curve" smooth="yes"/>
      <point x="-363" y="1190"/>
      <point x="-310" y="1235"/>
      <point x="-279" y="1288" type="curve"/>
      <point x="-320" y="1330" type="line"/>
      <point x="-354" y="1280"/>
      <point x="-390" y="1262"/>
      <point x="-445" y="1262" type="curve" smooth="yes"/>
      <point x="-527" y="1262"/>
      <point x="-586" y="1336"/>
      <point x="-586" y="1457" type="curve" smooth="yes"/>
      <point x="-586" y="1479" type="line" smooth="yes"/>
      <point x="-586" y="1606"/>
      <point x="-541" y="1688"/>
      <point x="-457" y="1688" type="curve" smooth="yes"/>
      <point x="-376" y="1688"/>
      <point x="-340" y="1620"/>
      <point x="-338" y="1528" type="curve" smooth="yes"/>
      <point x="-338" y="1521" type="line"/>
      <point x="-622" y="1521" type="line"/>
      <point x="-622" y="1460" type="line"/>
      <point x="-268" y="1460" type="line"/>
      <point x="-268" y="1506" type="line" smooth="yes"/>
      <point x="-268" y="1655"/>
      <point x="-336" y="1759"/>
      <point x="-457" y="1759" type="curve" smooth="yes"/>
      <point x="-569" y="1759"/>
      <point x="-661" y="1659"/>
      <point x="-661" y="1479" type="curve" smooth="yes"/>
      <point x="-661" y="1457" type="line" smooth="yes"/>
      <point x="-661" y="1300"/>
      <point x="-575" y="1190"/>
    </contour>
  </outline>
</glyph>
<glyph name="uni2E3C" format="2">
  <advance width="510"/>
  <unicode hex="2E3C"/>
  <outline>
    <contour>
      <point x="128" y="-126" type="line"/>
      <point x="423" y="232" type="line"/>
      <point x="382" y="280" type="line"/>
      <point x="87" y="-78" type="line"/>
    </contour>
    <contour>
      <point x="382" y="-126" type="line"/>
      <point x="423" y="-78" type="line"/>
      <point x="128" y="280" type="line"/>
      <point x="87" y="232" type="line"/>
    </contour>
  </outline>
</glyph>
<glyph name="uniA657" format="2">
  <advance width="1282"/>
  <unicode hex="A657"/>
  <outline>
    <contour>
      <point x="499" y="345" type="line"/>
      <point x="233" y="345" type="line"/>
      <point x="233" y="242" type="line"/>
      <point x="499" y="242" type="line"/>
    </contour>
    <contour>
      <point x="260" y="1082" type="line"/>
      <point x="149" y="1082" type="line"/>
      <point x="149" y="0" type="line"/>
      <point x="260" y="0" type="line"/>
    </contour>
    <contour>
      <point x="1017" y="194" type="line"/>
      <point x="1017" y="128"/>
      <point x="1024" y="47"/>
      <point x="1038" y="0" type="curve"/>
      <point x="1156" y="0" type="line"/>
      <point x="1156" y="13" type="line"/>
      <point x="1137" y="64"/>
      <point x="1128" y="152"/>
      <point x="1128" y="227" type="curve" smooth="yes"/>
      <point x="1128" y="780" type="line"/>
      <point x="1128" y="1015"/>
      <point x="990" y="1102"/>
      <point x="796" y="1102" type="curve" smooth="yes"/>
      <point x="586" y="1102"/>
      <point x="445" y="951"/>
      <point x="445" y="784" type="curve"/>
      <point x="556" y="783" type="line"/>
      <point x="556" y="909"/>
      <point x="652" y="998"/>
      <point x="791" y="998" type="curve" smooth="yes"/>
      <point x="938" y="998"/>
      <point x="1017" y="935"/>
      <point x="1017" y="782" type="curve"/>
    </contour>
    <contour>
      <point x="1041" y="631" type="line"/>
      <point x="834" y="631" type="line"/>
      <point x="562" y="631"/>
      <point x="424" y="485"/>
      <point x="424" y="285" type="curve" smooth="yes"/>
      <point x="424" y="82"/>
      <point x="540" y="-21"/>
      <point x="719" y="-21" type="curve" smooth="yes"/>
      <point x="918" y="-21"/>
      <point x="1035" y="136"/>
      <point x="1061" y="256" type="curve"/>
      <point x="1032" y="323" type="line"/>
      <point x="1007" y="200"/>
      <point x="895" y="88"/>
      <point x="733" y="88" type="curve" smooth="yes"/>
      <point x="609" y="88"/>
      <point x="535" y="150"/>
      <point x="535" y="294" type="curve" smooth="yes"/>
      <point x="535" y="442"/>
      <point x="641" y="537"/>
      <point x="850" y="537" type="curve"/>
      <point x="1042" y="537" type="line"/>
    </contour>
  </outline>
</glyph>
<glyph name="uniA70E" format="2">
  <advance width="560"/>
  <unicode hex="A70E"/>
  <outline>
    <contour>
      <point x="268" y="1456" type="line"/>
      <point x="175" y="1456" type="line"/>
      <point x="175" y="-270" type="line"/>
      <point x="268" y="-270" type="line"/>
    </contour>
    <contour>
      <point x="324" y="991" type="curve" smooth="yes"/>
      <point x="324" y="946"/>
      <point x="351" y="910"/>
      <point x="398" y="910" type="curve" smooth="yes"/>
      <point x="444" y="910"/>
      <point x="472" y="946"/>
      <point x="472" y="991" type="curve" smooth="yes"/>
      <point x="472" y="1036"/>
      <point x="444" y="1073"/>
      <point x="398" y="1073" type="curve" smooth="yes"/>
      <point x="351" y="1073"/>
      <point x="324" y="1036"/>
    </contour>
  </outline>
</glyph>
<glyph name="uniA7B0" format="2">
  <advance width="1124"/>
  <unicode hex="A7B0"/>
  <outline>
    <contour>
      <point x="84" y="0" type="line"/>
      <point x="227" y="0" type="line"/>
      <point x="677" y="576" type="line"/>
      <point x="891" y="840" type="line"/>
      <point x="878" y="980" type="line"/>
      <point x="608" y="667" type="line"/>
    </contour>
    <contour>
      <point x="184" y="1456" type="line"/>
      <point x="45" y="1456" type="line"/>
      <point x="618" y="608" type="line"/>
      <point x="687" y="710" type="line"/>
    </contour>
    <contour>
      <point x="837" y="0" type="line"/>
      <point x="952" y="0" type="line"/>
      <point x="952" y="1456" type="line"/>
      <point x="837" y="1456" type="line"/>
    </contour>
  </outline>
</glyph>
<glyph name="uniA7FE" format="2">
  <advance width="500"/>
  <unicode hex="A7FE"/>
  <outline>
    <contour>
      <point x="308" y="1536" type="line"/>
      <point x="193" y="1536" type="line"/>
      <point x="193" y="0" type="line"/>
      <point x="308" y="0" type="line"/>
    </contour>
  </outline>
</glyph>
<glyph name="uniAB59" format="2">
  <advance width="1009"/>
  <unicode hex="AB59"/>
  <outline>
    <contour>
      <point x="333" y="1082" type="line"/>
      <point x="203" y="1082" type="line"/>
      <point x="509" y="551" type="line"/>
      <point x="-39" y="-416" type="line"/>
      <point x="93" y="-416" type="line"/>
      <point x="570" y="456" type="line"/>
      <point x="820" y="0" type="line"/>
      <point x="950" y="0" type="line"/>
      <point x="631" y="551" type="line"/>
      <point x="937" y="1082" type="line"/>
      <point x="806" y="1082" type="line"/>
      <point x="569" y="646" type="line"/>
    </contour>
    <contour>
      <point x="-51" y="-416" type="line"/>
      <point x="245" y="-416" type="line"/>
      <point x="245" y="-313" type="line"/>
      <point x="-51" y="-313" type="line"/>
    </contour>
  </outline>
</glyph>
<glyph name="uniAB5B" format="2">
  <advance width="635"/>
  <unicode hex="AB5B"/>
  <outline>
    <contour>
      <point x="454" y="1456" type="line"/>
      <point x="454" y="1365"/>
      <point x="411" y="1286"/>
      <point x="304" y="1286" type="curve" smooth="yes"/>
      <point x="193" y="1286"/>
      <point x="153" y="1364"/>
      <point x="153" y="1456" type="curve"/>
      <point x="59" y="1456" type="line"/>
      <point x="59" y="1304"/>
      <point x="152" y="1198"/>
      <point x="304" y="1198" type="curve" smooth="yes"/>
      <point x="455" y="1198"/>
      <point x="548" y="1304"/>
      <point x="548" y="1456" type="curve"/>
    </contour>
    <contour>
      <point x="454" y="782" type="curve"/>
      <point x="548" y="782" type="line"/>
      <point x="548" y="934"/>
      <point x="455" y="1040"/>
      <point x="304" y="1040" type="curve" smooth="yes"/>
      <point x="152" y="1040"/>
      <point x="59" y="934"/>
      <point x="59" y="782" type="curve"/>
      <point x="153" y="782" type="line"/>
      <point x="153" y="874"/>
      <point x="193" y="952"/>
      <point x="304" y="952" type="curve" smooth="yes"/>
      <point x="411" y="952"/>
      <point x="454" y="873"/>
    </contour>
  </outline>
</glyph>
<glyph name="uni1F16B" format="2">
  <advance width="1130"/>
  <unicode hex="1F16B"/>
  <outline>
    <contour>
      <point x="336" y="1028" type="line"/>
      <point x="191" y="1456" type="line"/>
      <point x="126" y="1456" type="line"/>
      <point x="314" y="919" type="line"/>
      <point x="357" y="919" type="line"/>
      <point x="547" y="1456" type="line"/>
      <point x="482" y="1456" type="line"/>
    </contour>
    <contour>
      <point x="172" y="1456" type="line"/>
      <point x="109" y="1456" type="line"/>
      <point x="109" y="919" type="line"/>
      <point x="172" y="919" type="line"/>
    </contour>
    <contour>
      <point x="496" y="919" type="line"/>
      <point x="559" y="919" type="line"/>
      <point x="559" y="1456" type="line"/>
      <point x="496" y="1456" type="line"/>
    </contour>
    <contour>
      <point x="830" y="919" type="line"/>
      <point x="933" y="919"/>
      <point x="1022" y="998"/>
      <point x="1022" y="1139" type="curve" smooth="yes"/>
      <point x="1022" y="1236" type="line" smooth="yes"/>
      <point x="1022" y="1377"/>
      <point x="933" y="1456"/>
      <point x="830" y="1456" type="curve" smooth="yes"/>
      <point x="698" y="1456" type="line"/>
      <point x="698" y="1392" type="line"/>
      <point x="830" y="1392" type="line" smooth="yes"/>
      <point x="904" y="1392"/>
      <point x="958" y="1336"/>
      <point x="958" y="1236" type="curve" smooth="yes"/>
      <point x="958" y="1139" type="line" smooth="yes"/>
      <point x="958" y="1039"/>
      <point x="904" y="983"/>
      <point x="830" y="983" type="curve" smooth="yes"/>
      <point x="701" y="983" type="line"/>
      <point x="700" y="919" type="line"/>
    </contour>
    <contour>
      <point x="726" y="1456" type="line"/>
      <point x="662" y="1456" type="line"/>
      <point x="662" y="919" type="line"/>
      <point x="726" y="919" type="line"/>
    </contour>
  </outline>
</glyph>
<glyph name="J.smcp" format="2">
  <advance width="856"/>
  <anchor x="650" y="1320" name="top"/>
  <anchor x="401" y="-10" name="bottom"/>
  <anchor x="836" y="1600" name="top_dd"/>
  <anchor x="836" y="-407" name="bottom_dd"/>
  <anchor x="836" y="1320" name="top0315"/>
  <anchor x="650" y="1320" name="parent_top"/>
  <outline>
    <contour>
      <point x="603" y="337" type="line"/>
      <point x="603" y="181"/>
      <point x="518" y="87"/>
      <point x="401" y="87" type="curve" smooth="yes"/>
      <point x="263" y="87"/>
      <point x="179" y="166"/>
      <point x="179" y="326" type="curve"/>
      <point x="67" y="326" type="line"/>
      <point x="67" y="94"/>
      <point x="207" y="-16"/>
      <point x="401" y="-16" type="curve" smooth="yes"/>
      <point x="582" y="-16"/>
      <point x="715" y="117"/>
      <point x="715" y="337" type="curve"/>
      <point x="715" y="1165" type="line"/>
      <point x="603" y="1165" type="line"/>
    </contour>
  </outline>
</glyph>
<glyph name="one.sup" format="2">
  <advance width="663"/>
  <outline>
    <contour>
      <point x="415" y="790" type="line"/>
      <point x="403" y="790" type="line"/>
      <point x="126" y="683" type="line"/>
      <point x="126" y="592" type="line"/>
      <point x="318" y="660" type="line"/>
      <point x="318" y="0" type="line"/>
      <point x="415" y="0" type="line"/>
    </contour>
  </outline>
</glyph>
<glyph name="seven.pnum" format="2">
  <advance width="902"/>
  <outline>
    <contour>
      <point x="824" y="1456" type="line"/>
      <point x="68" y="1456" type="line"/>
      <point x="68" y="1352" type="line"/>
      <point x="708" y="1352" type="line"/>
      <point x="210" y="1" type="line"/>
      <point x="322" y="1" type="line"/>
      <point x="824" y="1386" type="line"/>
    </contour>
  </outline>
</glyph>
<glyph name="sterling.smcp" format="2">
  <advance width="913"/>
  <outline>
    <contour>
      <point x="840" y="0" type="line"/>
      <point x="840" y="104" type="line"/>
      <point x="104" y="104" type="line"/>
      <point x="104" y="0" type="line"/>
    </contour>
    <contour>
      <point x="666" y="621" type="line"/>
      <point x="56" y="621" type="line"/>
      <point x="56" y="533" type="line"/>
      <point x="666" y="533" type="line"/>
    </contour>
    <contour>
      <point x="317" y="744" type="line"/>
      <point x="310" y="961"/>
      <point x="380" y="1075"/>
      <point x="507" y="1075" type="curve" smooth="yes"/>
      <point x="621" y="1075"/>
      <point x="697" y="1001"/>
      <point x="697" y="794" type="curve"/>
      <point x="808" y="794" type="line"/>
      <point x="808" y="1025"/>
      <point x="719" y="1181"/>
      <point x="507" y="1181" type="curve" smooth="yes"/>
      <point x="314" y="1181"/>
      <point x="197" y="1018"/>
      <point x="206" y="744" type="curve" smooth="yes"/>
      <point x="214" y="466" type="line" smooth="yes"/>
      <point x="218" y="336"/>
      <point x="195" y="136"/>
      <point x="112" y="104" type="curve"/>
      <point x="219" y="54" type="line"/>
      <point x="305" y="132"/>
      <point x="329" y="297"/>
      <point x="325" y="466" type="curve" smooth="yes"/>
    </contour>
  </outline>
</glyph>
<glyph name="uni02E5_uni02E8_uni02E9" format="2">
  <advance width="1013"/>
  <outline>
    <contour>
      <point x="844" y="0" type="line"/>
      <point x="844" y="1456" type="line"/>
      <point x="733" y="1456" type="line"/>
      <point x="733" y="143" type="line"/>
      <point x="506" y="418" type="line"/>
      <point x="182" y="1456" type="line"/>
      <point x="95" y="1417" type="line"/>
      <point x="418" y="371" type="line"/>
      <point x="733" y="0" type="line"/>
    </contour>
  </outline>
</glyph>
